<svg width="129" height="128" viewBox="0 0 129 128" fill="none" xmlns="http://www.w3.org/2000/svg">
<path d="M72.2212 38.8082L91.6331 19.2643L84.2227 4.34314H44.2117L36.7994 19.2643L56.2132 38.8082C36.5251 42.5907 21.5903 60.0163 21.5903 80.908C21.5903 104.557 40.7138 123.792 64.2162 123.792C87.7187 123.792 106.842 104.557 106.842 80.908C106.842 60.0163 91.9074 42.5887 72.2212 38.8082ZM66.9813 29.5767H61.4191L58.5118 20.8132H69.8866L66.9813 29.5767ZM81.814 8.19736L86.1669 16.9609H74.2155L72.7799 8.19736H81.814ZM73.9692 20.8132H84.6492L75.9394 29.5767H71.0639L73.9692 20.8132ZM59.575 8.19736H68.8534L70.2891 16.9609H58.1154L59.575 8.19736ZM46.6184 8.19736H55.6486L54.1889 16.9609H42.2655L46.6184 8.19736ZM43.7772 20.8132H54.4312L57.3365 29.5767H52.457L43.7772 20.8132ZM64.2162 119.938C42.8482 119.938 25.4646 102.429 25.4646 80.908C25.4646 59.3872 42.8502 41.876 64.2162 41.876C85.5823 41.876 102.966 59.3852 102.966 80.908C102.966 102.431 85.5843 119.938 64.2162 119.938Z" fill="#621616"/>
<path d="M64.2162 46.3652C45.2809 46.3652 29.8736 61.8618 29.8736 80.9079C29.8736 99.956 45.2809 115.453 64.2162 115.453C83.1515 115.453 98.5589 99.958 98.5589 80.9079C98.5589 61.8618 83.1515 46.3652 64.2162 46.3652ZM64.2162 111.598C47.4153 111.598 33.748 97.8298 33.748 80.9079C33.748 63.986 47.4173 50.2175 64.2162 50.2175C81.0151 50.2175 94.6825 63.986 94.6825 80.9079C94.6825 97.8298 81.0171 111.598 64.2162 111.598Z" fill="#FAFF00"/>
</svg>
